<?xml version="1.0" encoding="iso-8859-1"?>
<!-- Generator: Adobe Illustrator 19.0.0, SVG Export Plug-In . SVG Version: 6.00 Build 0)  -->
<svg xmlns="http://www.w3.org/2000/svg" xmlns:xlink="http://www.w3.org/1999/xlink" version="1.1" id="Layer_1" x="0px" y="0px" viewBox="0 0 512 512" style="enable-background:new 0 0 512 512;" xml:space="preserve" width="512px" height="512px">
<g>
	<g>
		<g>
			<path d="M33.47,25.615h93.977c5.419,0,9.804-4.39,9.804-9.804s-4.385-9.804-9.804-9.804H9.804C4.385,6.008,0,10.397,0,15.811     v117.643c0,5.414,4.385,9.804,9.804,9.804c5.419,0,9.804-4.39,9.804-9.804V39.478l159.73,159.73     c1.915,1.915,4.423,2.872,6.931,2.872c2.508,0,5.017-0.957,6.931-2.872c3.83-3.829,3.83-10.033,0-13.863L33.47,25.615z" fill="#FFFFFF"/>
			<path d="M179.337,312.792l-159.73,159.73v-93.977c0-5.414-4.385-9.804-9.804-9.804c-5.419,0-9.804,4.39-9.804,9.804v117.643     c0,5.414,4.385,9.804,9.804,9.804h117.643c5.419,0,9.804-4.39,9.804-9.804s-4.385-9.804-9.804-9.804H33.47l159.73-159.73     c3.83-3.829,3.829-10.033,0-13.863C189.371,308.963,183.167,308.963,179.337,312.792z" fill="#FFFFFF"/>
			<path d="M499.985,368.742c-5.419,0-9.804,4.39-9.804,9.804v93.977l-159.73-159.73c-3.829-3.83-10.033-3.829-13.863,0     s-3.83,10.033,0,13.863l159.73,159.73h-93.977c-5.419,0-9.804,4.39-9.804,9.804s4.385,9.804,9.804,9.804h117.643     c5.419,0,9.804-4.39,9.804-9.804V378.545C509.789,373.131,505.404,368.742,499.985,368.742z" fill="#FFFFFF"/>
			<path d="M502.197,6.008H384.553c-5.419,0-9.804,4.39-9.804,9.804s4.385,9.804,9.804,9.804h91.765l-159.73,159.73     c-3.83,3.829-3.83,10.033,0,13.863c1.915,1.915,4.423,2.872,6.931,2.872c2.508,0,5.017-0.957,6.932-2.872L492.393,37.266v96.188     c0,5.414,4.385,9.804,9.804,9.804c5.419,0,9.804-4.39,9.804-9.804V15.811C512,10.397,507.615,6.008,502.197,6.008z" fill="#FFFFFF"/>
		</g>
	</g>
</g>
<g>
</g>
<g>
</g>
<g>
</g>
<g>
</g>
<g>
</g>
<g>
</g>
<g>
</g>
<g>
</g>
<g>
</g>
<g>
</g>
<g>
</g>
<g>
</g>
<g>
</g>
<g>
</g>
<g>
</g>
</svg>
